PathFileType	4	(X/Y/Z)	C:/Users/beibeiliu/ov580/test_trc/User3\out5_training_dense_right.trc
DataRate	CameraRate	NumFrames	NumMarkers	Units	OrigDataRate	OrigDataStartFrame	OrigNumFrames
120	120	14	19	mm	120	438	500
Frame#	Time	ThumbCMC			ThumbMCP			ThumbIP			ThumbTip			IndexMCP			IndexPIP			IndexTip			MiddleMCP			MiddlePIP			MiddleTip			RingMCP			RingPIP			RingTip			PinkyMCP			PinkyPIP			PinkyTip			BackHand1			BackHand2			BackHand3	
		X0	Y0	Z0	X1	Y1	Z1	X2	Y2	Z2	X3	Y3	Z3	X4	Y4	Z4	X5	Y5	Z5	X6	Y6	Z6	X7	Y7	Z7	X8	Y8	Z8	X9	Y9	Z9	X10	Y10	Z10	X11	Y11	Z11	X12	Y12	Z12	X13	Y13	Z13	X14	Y14	Z14	X15	Y15	Z15	X16	Y16	Z16	X17	Y17	Z17	X18	Y18	Z18	
437	3.64167	134.017	108.093	16.1646	105.445	117.502	7.28754	77.5021	111.201	0.838277	62.6787	85.0771	5.80938	67.9938	96.1202	-19.2421	43.6545	105.142	4.5959	61.3232	107.92	29.221	60.1374	78.8423	-14.0432	45.1919	88.6491	17.5768	77.5975	85.9779	38.3816	60.9759	62.6162	0.719802	55.709	67.1889	27.4617	85.7046	71.5365	42.0842	68.7455	45.0375	9.23952	64.0246	55.3473	33.9986	95.0434	62.3408	46.1083	118.224	50.3166	-10.9837	147.602	48.5951	4.50179	137.464	80.7644	-8.34391	
438	3.65	139.444	98.7324	14.7004	115.292	116.148	3.50518	84.5195	117.923	-6.47818	68.4824	97.1013	1.75201	70.6208	100.266	-24.7351	49.5937	110.728	-3.22406	69.7972	116.327	25.2906	62.2888	81.3105	-13.6511	48.8697	96.2982	13.5243	84.3678	90.7966	33.9626	61.9564	65.2849	-0.0379566	59.2224	78.0199	30.7029	87.9711	78.9492	38.009	65.2896	51.6768	11.4052	64.8411	63.6588	37.6956	94.0471	62.5799	45.0323	113.52	45.4832	-9.37871	140.134	37.9562	7.93437	137.982	72.3907	-7.2572	
439	3.65833	144.779	93.3192	12.7806	122.528	110.291	-1.75399	96.1964	120.879	-13.4877	71.429	110.06	-9.43024	78.2315	99.2399	-28.4342	58.5836	119.709	-9.5028	74.974	115.977	18.4125	65.2886	83.8138	-15.9664	56.606	103.905	9.96408	90.3739	87.2148	27.812	60.9752	70.6457	0.0565933	61.6972	86.2251	25.6514	95.9926	75.6554	34.3393	65.0595	58.6714	9.74613	66.5959	70.2199	37.1803	97.1543	64.6557	42.335	113.405	40.091	-6.85278	139.029	29.5885	12.5299	138.999	67.3731	-8.78277	
440	3.66667	150.394	86.9889	12.7607	133.458	106.554	-0.90745	111.092	123.136	-16.726	83.8988	124.726	-21.6957	86.8306	98.6997	-33.6817	69.1407	120.043	-16.6197	90.3574	112.428	11.611	70.5557	86.7449	-21.546	63.7878	106.228	3.42635	97.1273	85.5348	22.6679	65.9784	74.9448	-5.41421	64.4687	87.4239	20.3275	98.9841	77.0314	28.4334	63.0053	61.7685	7.99319	69.6356	74.3173	32.6505	93.0533	67.0778	38.2915	110.428	36.4969	-7.36222	132.772	22.9481	11.5166	139.567	55.9078	-8.60222	
441	3.675	149.073	77.722	9.22372	135.52	99.1029	-7.66219	118.562	118.639	-24.0886	95.6577	124.621	-30.9775	94.5677	92.6692	-38.6931	78.7995	115.631	-21.2418	101.41	109.435	3.11185	77.7014	88.2043	-28.3163	70.779	103.746	-0.905185	102.749	87.9898	15.786	68.5616	73.9805	-11.1537	69.3339	89.2165	16.1057	96.3844	76.7873	25.9045	63.1616	62.4048	2.85089	69.6275	77.0818	24.6531	95.7466	64.2679	34.8042	110.259	31.6967	-9.64573	130.343	20.1237	10.2911	143.286	47.2269	-7.93153	
442	3.68333	152.219	69.895	9.96632	141.216	93.2638	-10.3383	125.666	110.176	-26.3426	104.978	123.126	-39.5033	98.292	90.8125	-44.6366	88.2403	112.591	-25.1424	108.597	99.7336	-1.58317	83.6612	81.4768	-34.8718	79.2246	104.177	-10.0023	103.914	83.7432	10.4784	74.4218	69.2075	-19.7856	72.1289	89.4915	4.16246	97.3356	76.7936	19.7371	67.1415	58.6844	-4.64573	70.7643	75.9601	16.6428	93.3386	63.0128	31.7529	111.939	25.3886	-9.91991	127.816	13.5583	15.7483	140.024	39.6663	-8.38555	
443	3.69167	151.969	65.4053	4.27487	140.921	85.1355	-15.1253	128.657	103.188	-33.4293	108.136	113.638	-46.9517	104.741	77.3936	-48.7721	89.1455	104.064	-32.9461	112.566	93.1247	-9.17923	86.5492	74.5939	-41.2013	80.105	95.9637	-15.9714	101.785	77.1944	4.96336	73.5129	62.9078	-24.768	71.5867	84.5251	-2.33173	96.6881	74.1808	14.5723	64.3477	54.7863	-10.3407	72.1898	73.3119	7.43077	93.6823	58.5747	22.7267	108.918	16.9835	-9.05626	123.931	6.66931	12.9707	140.359	30.6359	-7.92566	
444	3.7	152.618	60.485	4.87302	139.326	78.3846	-16.7027	127.323	93.8721	-35.9669	109.519	102.221	-49.2368	99.9119	69.1267	-53.293	91.1918	97.2341	-39.3055	111.38	86.8944	-15.175	84.0659	64.6212	-45.7991	78.1097	88.009	-24.038	103.846	71.0949	-0.150222	70.8148	54.721	-31.1115	67.0061	74.8741	-12.1083	94.7491	63.1798	9.60602	64.4915	41.4268	-14.1649	68.7254	65.4633	3.41881	91.5482	51.247	17.9636	109.55	11.466	-14.0917	126.298	3.31589	16.3105	141.329	24.5208	-6.89161	
445	3.70833	149.992	56.1225	4.25023	138.551	73.0296	-21.1977	124.679	84.1005	-44.533	109.705	93.1602	-58.3505	101.309	59.5654	-59.1238	90.7358	86.8564	-51.4815	104.984	82.8618	-21.0241	83.6682	54.2814	-51.967	74.8233	79.2988	-35.4395	96.4125	63.708	-5.41806	74.0185	45.2865	-37.6745	62.8333	64.5787	-19.2015	87.7503	62.1561	2.88289	64.0548	34.656	-21.1754	65.6522	59.3361	-5.00573	87.8419	48.5147	13.1006	109.248	4.41589	-10.2493	121.19	-1.64682	15.2535	141.939	18.4758	-4.84512	
446	3.71667	143.317	50.623	2.10776	137.671	70.0405	-20.7546	124.956	80.4137	-49.6994	108.065	82.4258	-61.7746	105.533	50.2873	-61.4423	86.1512	77.6127	-53.1875	100.407	77.3411	-27.1222	83.201	45.2639	-57.258	72.3028	70.8749	-44.3423	96.1069	61.902	-11.4795	72.4944	38.152	-42.1534	61.5965	58.3543	-27.0878	84.8441	55.2557	-2.45465	61.6204	28.001	-25.4345	61.4001	51.4052	-10.2324	85.566	43.5784	9.71031	110.717	-0.131636	-9.51504	122.387	-4.83847	16.1636	143.05	17.2405	-5.49315	
447	3.725	143.599	53.594	4.8764	131.809	65.1283	-26.0764	122.572	72.6552	-50.9268	106.125	76.6469	-70.5512	108.045	45.2952	-64.7835	87.6848	70.1914	-63.4149	96.8825	72.0029	-30.9149	86.6828	34.6413	-57.3173	72.3331	63.4667	-48.8604	94.1247	56.9394	-14.7142	77.0614	28.2137	-45.2135	63.8964	53.9694	-33.1463	88.2075	49.7234	-6.97221	65.5322	19.8344	-28.4051	59.198	44.9656	-15.7531	80.0419	41.5523	4.22368	109.344	-3.53601	-13.6334	120.491	-4.20645	16.6641	139.468	15.8312	-4.92658	
448	3.73333	138.357	49.1777	3.48641	133.54	64.2436	-25.0455	121.678	68.1203	-50.6379	106.156	68.6025	-74.966	110.049	38.118	-66.877	85.4108	62.7581	-64.538	94.3707	66.1555	-36.183	86.7035	28.7442	-60.3284	72.2291	57.5184	-52.6509	92.3535	49.9786	-17.3505	74.2255	23.2837	-49.2211	61.7815	46.8919	-32.8667	84.8419	44.5979	-9.36425	65.3322	12.779	-31.4823	59.0543	39.795	-24.544	77.4592	39.4561	-1.59521	114.252	-5.72152	-10.8252	122.044	-4.81069	21.5063	142.902	15.6014	-6.26691	
449	3.74167	137.997	45.9206	1.6304	131.523	57.3603	-23.9257	127.179	64.0165	-53.5702	111.947	62.2676	-73.8537	111.073	28.9404	-66.2829	89.9765	54.7089	-73.3308	94.9279	62.7076	-42.0552	92.8693	24.3468	-62.712	73.4496	50.1051	-55.0764	95.6612	46.6723	-21.7986	74.7369	14.8758	-49.4506	63.3051	42.7295	-39.2803	80.4814	41.3441	-13.695	67.1136	6.3341	-32.5109	56.9535	32.1061	-29.7921	74.5606	36.6917	-7.06793	113.356	-8.51143	-7.90376	118.199	-7.3007	20.5114	142.03	12.82	-1.2845	
450	3.75	141.405	45.5334	2.81528	135.944	51.2737	-28.1498	128.527	51.0043	-56.168	113.172	48.883	-75.5128	115.853	21.667	-70.0929	93.7936	39.8253	-78.6586	100.04	61.4341	-47.8553	95.5284	14.0129	-61.7009	76.7787	41.6357	-62.2205	92.5263	41.9058	-25.7287	84.0104	9.09039	-49.1979	66.2286	35.2585	-43.1358	85.3826	40.2391	-18.0798	70.8572	2.07831	-34.5578	60.5671	27.5421	-32.2644	75.9262	29.9498	-5.08222	113.367	-11.2087	-5.69925	120.951	-7.9314	26.8062	142.779	8.91372	1.95184	
